<?xml version="1.0" standalone="no"?>
<!DOCTYPE svg PUBLIC "-//W3C//DTD SVG 20010904//EN"
 "http://www.w3.org/TR/2001/REC-SVG-20010904/DTD/svg10.dtd">
<svg version="1.0" xmlns="http://www.w3.org/2000/svg"
 width="2000.000000pt" height="2000.000000pt" viewBox="0 0 2000.000000 2000.000000"
 preserveAspectRatio="xMidYMid meet">

<g transform="translate(0.000000,2000.000000) scale(0.100000,-0.100000)"
fill="#000000" stroke="none">
<path d="M4265 16341 c-36 -9 -48 -15 -195 -101 -63 -36 -221 -128 -350 -202
-129 -75 -464 -269 -745 -430 -596 -345 -793 -458 -1005 -580 -177 -102 -193
-115 -226 -180 l-24 -48 2 -337 3 -337 90 -52 c50 -28 603 -348 1230 -709 627
-362 1170 -675 1207 -697 l68 -40 302 175 c427 247 871 503 953 550 39 22 214
123 390 225 176 102 406 234 510 295 105 60 247 143 318 184 l127 75 0 317 c0
347 -5 387 -58 448 -15 19 -117 84 -242 156 -118 68 -307 177 -420 242 -113
65 -288 167 -390 225 -102 59 -450 260 -775 447 -324 187 -604 347 -620 356
-38 19 -111 28 -150 18z m-2083 -1918 c21 -19 27 -123 6 -123 -29 0 -48 33
-48 87 0 57 10 65 42 36z m79 -43 c15 -9 19 -22 19 -70 0 -64 -1 -66 -31 -50
-15 9 -19 22 -19 70 0 64 1 66 31 50z m-350 -50 c15 -9 19 -22 19 -70 0 -64
-1 -66 -31 -50 -15 9 -19 22 -19 70 0 64 1 66 31 50z m442 -254 c21 -17 25
-126 4 -126 -26 0 -37 25 -37 82 0 61 4 66 33 44z m455 -70 c3 -56 -1 -62 -32
-50 -12 5 -16 21 -16 71 l0 65 23 -14 c18 -12 23 -26 25 -72z m90 -50 c3 -50
1 -56 -17 -56 -27 0 -41 29 -41 83 0 53 7 61 34 43 16 -10 22 -26 24 -70z
m-350 -46 c4 -62 -5 -76 -36 -54 -18 12 -22 25 -22 68 0 62 6 71 34 52 16 -10
22 -26 24 -66z m520 -59 l3 -61 -26 12 c-23 10 -25 16 -25 76 l0 64 23 -14
c18 -13 23 -26 25 -77z m-360 17 c7 -7 12 -38 12 -70 l0 -58 -25 12 c-23 10
-25 17 -25 70 0 59 11 73 38 46z m526 -304 c19 -19 23 -124 4 -124 -29 0 -48
33 -48 87 0 57 13 68 44 37z m450 -79 c29 -27 56 -82 56 -115 0 -29 -47 -70
-80 -70 -39 0 -76 33 -95 85 -21 54 -14 89 23 108 41 22 66 20 96 -8z m334
-198 c55 -57 63 -121 18 -159 -61 -51 -156 22 -156 122 0 23 7 35 33 50 45 28
68 25 105 -13z"/>
<path d="M11480 15423 c-8 -3 -87 -47 -175 -98 -88 -51 -218 -126 -290 -167
-125 -72 -1774 -1024 -2985 -1723 -891 -515 -1531 -884 -1785 -1030 -662 -382
-637 -366 -670 -419 l-30 -49 -2 -2306 c-2 -1841 0 -2311 10 -2331 27 -54 44
-47 477 203 223 128 875 505 1450 837 575 331 1117 644 1205 695 219 127 1031
596 1245 719 1348 775 1560 901 1588 941 l27 40 3 2330 2 2330 -21 18 c-22 18
-25 19 -49 10z m-354 -669 c14 -53 -47 -127 -90 -111 -20 8 -20 49 -1 87 28
53 80 67 91 24z m-190 -108 c8 -32 -23 -95 -52 -108 -50 -23 -71 21 -39 82 27
52 80 67 91 26z m-196 -101 c26 -32 -32 -129 -74 -123 -40 6 -28 91 18 123 26
19 40 19 56 0z m600 -3526 c-23 -85 -56 -111 -360 -287 -157 -90 -375 -216
-485 -280 -110 -63 -342 -197 -515 -297 -327 -188 -699 -403 -1070 -617 -118
-69 -291 -169 -385 -223 -93 -54 -228 -132 -300 -173 -185 -107 -395 -229
-740 -427 -165 -95 -338 -195 -385 -223 -125 -72 -400 -231 -610 -352 -102
-59 -261 -151 -355 -205 -253 -147 -268 -155 -297 -155 -17 0 -34 9 -47 26
l-21 27 2 1320 3 1319 1350 780 c743 428 1820 1051 2395 1382 575 332 1221
705 1435 829 l390 225 3 -1315 c1 -880 -1 -1328 -8 -1354z m-2030 2106 c8 -10
11 -49 8 -127 -2 -93 -6 -117 -23 -139 -10 -14 -89 -66 -175 -115 -85 -50
-402 -234 -705 -410 -302 -176 -558 -323 -567 -327 -10 -3 -24 1 -34 10 -23
24 -17 226 9 265 16 24 578 356 1232 729 260 148 236 137 255 114z"/>
<path d="M1878 13848 l-158 -90 0 -377 0 -377 162 -95 c90 -51 172 -99 183
-105 11 -6 256 -147 545 -314 289 -166 789 -455 1112 -641 322 -187 592 -339
599 -339 6 0 57 26 113 58 369 213 492 284 573 332 l91 53 4 181 c3 172 4 184
30 238 14 31 46 76 70 99 29 29 310 196 878 523 l835 482 0 139 0 140 -79 47
c-78 46 -80 46 -109 31 -31 -16 -687 -394 -1082 -623 -121 -70 -371 -214 -555
-320 -184 -106 -432 -249 -550 -318 -118 -69 -219 -125 -225 -125 -5 0 -309
173 -675 385 -366 211 -875 505 -1132 654 l-467 269 -3 92 -3 92 -157 -91z
m35 -392 c15 -11 17 -26 15 -75 l-3 -61 -22 15 c-20 14 -23 25 -23 76 0 62 4
67 33 45z m105 -125 l3 -61 -26 12 c-23 10 -25 16 -25 76 l0 64 23 -14 c18
-13 23 -26 25 -77z m166 -37 c17 -16 23 -109 8 -118 -5 -3 -18 2 -30 10 -18
12 -22 25 -22 70 0 58 13 69 44 38z m80 -40 c12 -5 16 -21 16 -71 l0 -65 -22
14 c-19 12 -24 26 -26 72 -3 56 1 62 32 50z m-350 -50 c12 -5 16 -21 16 -70 0
-35 -3 -64 -7 -64 -3 0 -15 7 -25 17 -13 12 -18 30 -18 70 0 53 4 58 34 47z
m94 -56 c12 -12 18 -128 6 -128 -3 0 -14 5 -25 10 -15 9 -19 22 -19 70 0 61
11 75 38 48z m83 -48 c15 -9 19 -22 19 -70 0 -64 -1 -66 -31 -50 -15 9 -19 22
-19 70 0 64 1 66 31 50z m443 -6 c17 -16 24 -124 8 -124 -4 0 -18 7 -30 16
-18 12 -22 25 -22 70 0 58 13 69 44 38z m174 -96 c12 -12 18 -128 6 -128 -3 0
-14 5 -25 10 -15 9 -19 22 -19 70 0 61 11 75 38 48z m-357 -48 c15 -9 19 -22
19 -70 0 -64 -1 -66 -31 -50 -15 9 -19 22 -19 70 0 64 1 66 31 50z m440 0 c15
-9 19 -22 19 -70 0 -64 -1 -66 -31 -50 -15 9 -19 22 -19 70 0 64 1 66 31 50z
m-347 -56 c11 -10 16 -34 16 -70 0 -58 -1 -59 -31 -44 -15 9 -19 22 -19 70 0
62 7 71 34 44z m438 -1 c23 -21 27 -123 4 -123 -30 0 -46 30 -46 86 0 58 10
66 42 37z m-350 -50 c23 -21 27 -123 4 -123 -30 0 -46 30 -46 86 0 58 10 66
42 37z m436 5 c12 -12 18 -128 6 -128 -3 0 -14 5 -25 10 -15 9 -19 22 -19 70
0 61 11 75 38 48z m343 -198 c15 -9 19 -22 19 -70 0 -64 -1 -66 -31 -50 -15 9
-19 22 -19 70 0 64 1 66 31 50z m-350 -50 c15 -9 19 -22 19 -70 0 -64 -1 -66
-31 -50 -15 9 -19 22 -19 70 0 64 1 66 31 50z m90 -50 c15 -9 19 -22 19 -70 0
-61 -11 -75 -38 -48 -12 12 -18 128 -6 128 3 0 14 -5 25 -10z m107 -124 c3
-56 -1 -62 -32 -50 -12 5 -16 21 -16 71 l0 65 23 -14 c18 -12 23 -26 25 -72z
m90 -50 c3 -50 1 -56 -17 -56 -27 0 -41 29 -41 83 0 53 7 61 34 43 16 -10 22
-26 24 -70z m65 22 c12 -9 18 -29 18 -66 2 -59 -4 -71 -29 -56 -12 8 -18 28
-20 73 -3 63 2 70 31 49z m365 -34 c28 -19 62 -85 62 -118 0 -48 -71 -90 -113
-67 -33 17 -68 74 -74 119 -5 34 -2 42 22 60 33 26 72 28 103 6z m343 -205
c39 -41 55 -103 36 -132 -8 -12 -26 -29 -41 -36 -23 -13 -31 -13 -61 2 -53 25
-94 124 -67 163 29 43 94 44 133 3z"/>
<path d="M1875 12722 l-150 -88 0 -379 0 -380 435 -251 c239 -138 804 -464
1255 -724 451 -261 839 -485 863 -498 l43 -24 142 82 c78 45 253 146 389 224
l248 141 0 473 0 474 -32 -20 c-18 -11 -105 -61 -193 -112 -88 -51 -249 -144
-357 -206 -108 -63 -200 -114 -203 -114 -5 0 -1374 788 -2085 1201 l-185 107
-3 91 c-1 50 -6 91 -10 91 -4 -1 -74 -40 -157 -88z m36 -392 c15 -9 19 -22 19
-70 0 -64 -1 -66 -31 -50 -15 9 -19 22 -19 70 0 64 1 66 31 50z m183 -106 c20
-20 23 -124 3 -124 -26 0 -37 25 -37 82 0 60 7 69 34 42z m-2 -251 c13 -12 18
-30 18 -70 0 -53 -4 -58 -34 -47 -12 5 -16 21 -16 70 0 35 3 64 7 64 3 0 15
-7 25 -17z m456 -67 c2 -44 0 -56 -12 -56 -28 0 -46 30 -46 79 0 57 7 66 34
47 16 -10 22 -26 24 -70z m63 24 c15 -9 19 -22 19 -70 0 -61 -11 -75 -38 -48
-12 12 -18 128 -6 128 3 0 14 -5 25 -10z m109 -128 l0 -64 -22 14 c-19 13 -24
26 -26 77 l-3 61 26 -12 c23 -10 25 -16 25 -76z m88 -51 c3 -63 -1 -69 -30
-47 -14 10 -18 28 -18 76 l0 62 23 -14 c18 -13 23 -26 25 -77z m-268 -40 c12
-23 13 -108 2 -115 -5 -3 -18 2 -30 10 -18 12 -22 25 -22 70 0 47 3 54 20 54
10 0 24 -9 30 -19z m608 -93 c12 -12 18 -128 6 -128 -3 0 -14 5 -25 10 -15 9
-19 22 -19 70 0 61 11 75 38 48z m-264 -104 c17 -16 24 -124 8 -124 -4 0 -18
7 -30 16 -18 12 -22 25 -22 70 0 58 13 69 44 38z m84 -46 c12 -12 17 -128 5
-128 -3 0 -15 7 -25 17 -13 12 -18 30 -18 70 0 54 12 67 38 41z m713 -235 c34
-29 59 -78 59 -117 0 -35 -59 -79 -94 -70 -53 13 -108 111 -91 163 5 17 57 49
82 50 6 1 26 -11 44 -26z m334 -196 c34 -34 58 -96 48 -125 -10 -28 -46 -52
-79 -52 -50 0 -104 69 -104 134 0 30 6 40 33 56 45 28 64 25 102 -13z"/>
<path d="M16942 12225 c-13 -10 -27 -27 -32 -40 -8 -22 -10 -22 -47 -9 -88 31
-194 0 -243 -73 -22 -32 -25 -48 -25 -118 0 -73 -3 -85 -27 -117 -39 -51 -157
-143 -311 -244 -285 -187 -522 -382 -614 -509 -48 -65 -49 -74 -28 -134 31
-88 124 -206 351 -448 130 -139 134 -144 134 -187 0 -44 0 -44 168 -203 92
-88 216 -204 275 -258 l109 -99 -6 -65 c-8 -84 -62 -955 -77 -1246 -8 -148
-10 -415 -6 -815 9 -849 30 -1367 72 -1714 13 -111 40 -345 60 -521 20 -176
63 -536 95 -799 33 -264 60 -499 60 -522 0 -38 -5 -47 -42 -79 -55 -47 -272
-154 -408 -200 -58 -19 -155 -60 -217 -90 -156 -76 -185 -120 -120 -182 17
-18 64 -47 102 -65 63 -29 81 -33 179 -36 154 -6 239 10 381 72 142 63 181 73
300 81 113 8 155 19 189 50 23 22 26 31 26 94 0 75 -20 194 -46 279 -16 49
-16 62 -1 185 49 394 105 957 116 1169 12 230 -15 512 -68 700 -17 63 -17 67
26 553 23 270 56 614 73 767 16 152 30 290 30 307 0 20 5 31 14 31 20 0 24
-42 31 -315 15 -594 29 -774 101 -1315 47 -353 67 -482 139 -882 25 -136 45
-252 45 -257 0 -5 -25 5 -56 21 -80 44 -124 52 -174 32 -55 -22 -74 -60 -65
-130 9 -77 53 -156 144 -261 44 -50 114 -138 156 -195 44 -59 90 -110 108
-120 45 -24 125 -32 176 -18 62 16 74 52 69 195 -2 71 -9 118 -18 131 -12 19
-10 52 13 245 61 510 94 949 83 1124 -7 126 -47 366 -85 509 l-29 110 23 250
c28 299 52 636 61 836 5 132 9 156 45 268 39 122 134 569 163 772 9 58 21 222
26 365 6 148 16 270 22 282 16 32 -6 445 -32 625 -60 409 -197 609 -444 650
-64 11 -104 8 -261 -16 -5 0 -14 51 -20 116 l-10 118 55 27 c79 38 215 178
262 268 147 284 166 578 46 701 l-30 32 46 27 c49 29 54 36 33 54 -31 25 -72
24 -104 -3 l-30 -26 -17 44 c-20 52 -89 120 -150 147 -97 42 -152 50 -321 44
-146 -6 -167 -5 -240 16 -109 30 -174 35 -203 14z m-147 -595 c-3 -5 -12 -10
-19 -10 -20 0 -66 -54 -76 -90 -10 -36 -5 -69 17 -112 12 -25 11 -33 -12 -78
-14 -27 -25 -56 -25 -63 0 -8 19 -20 43 -26 l43 -13 12 -133 c12 -138 30 -204
66 -242 27 -29 119 -47 209 -40 37 2 67 2 67 -2 0 -3 9 -60 20 -126 24 -144
24 -155 5 -155 -8 0 -56 -13 -106 -29 l-91 -29 -303 190 c-203 127 -310 188
-322 184 -12 -3 -51 19 -117 67 -55 40 -101 77 -103 83 -2 6 127 140 287 298
228 225 302 293 343 312 57 26 72 29 62 14z m-12 -111 c-5 -5 -18 -6 -30 -3
-20 5 -21 9 -11 28 6 11 18 26 27 33 14 10 16 7 19 -19 2 -17 0 -34 -5 -39z
m-12 -39 c13 0 11 -13 -6 -36 -13 -16 -16 -17 -25 -4 -16 24 -12 53 6 46 9 -3
20 -6 25 -6z"/>
<path d="M1878 11596 l-158 -91 0 -376 0 -377 648 -372 c356 -205 672 -388
702 -406 30 -18 324 -188 652 -378 l598 -344 192 111 c106 61 281 161 388 223
l195 112 3 471 c1 259 0 471 -3 471 -2 0 -57 -31 -122 -69 -322 -188 -649
-374 -658 -374 -9 0 -229 126 -1305 748 -135 77 -408 235 -607 350 l-362 209
-3 92 -3 92 -157 -92z m36 -392 c12 -5 16 -21 16 -71 l0 -65 -22 14 c-19 12
-24 26 -26 72 -3 56 1 62 32 50z m94 -56 c13 -13 17 -128 5 -128 -5 0 -16 7
-25 14 -14 10 -18 28 -18 70 0 57 11 71 38 44z m83 -48 c15 -9 19 -22 19 -70
0 -64 -1 -66 -31 -50 -15 9 -19 22 -19 70 0 64 1 66 31 50z m-171 -155 c12
-14 16 -112 6 -123 -3 -2 -14 1 -25 8 -18 9 -21 20 -21 70 0 63 13 77 40 45z
m438 3 c12 -12 18 -128 6 -128 -3 0 -14 5 -25 10 -15 9 -19 22 -19 70 0 61 11
75 38 48z m83 -48 c15 -9 19 -22 19 -70 0 -64 -1 -66 -31 -50 -15 9 -19 22
-19 70 0 64 1 66 31 50z m93 -56 c19 -19 23 -124 4 -124 -29 0 -48 33 -48 87
0 57 13 68 44 37z m-350 -50 c21 -21 23 -124 2 -124 -30 0 -46 30 -46 86 0 58
13 69 44 38z m434 4 c12 -12 18 -128 6 -128 -3 0 -14 5 -25 10 -15 9 -19 22
-19 70 0 61 11 75 38 48z m-357 -48 c15 -9 19 -22 19 -70 0 -64 -1 -66 -31
-50 -15 9 -19 22 -19 70 0 64 1 66 31 50z m440 0 c15 -9 19 -22 19 -70 0 -64
-1 -66 -31 -50 -15 9 -19 22 -19 70 0 64 1 66 31 50z m93 -56 c20 -20 23 -124
3 -124 -26 0 -37 25 -37 82 0 60 7 69 34 42z m-353 -44 c15 -9 19 -22 19 -70
0 -61 -11 -75 -38 -48 -12 12 -18 128 -6 128 3 0 14 -5 25 -10z m441 -7 c23
-21 27 -123 4 -123 -30 0 -46 30 -46 86 0 58 10 66 42 37z m-350 -50 c23 -21
27 -123 4 -123 -30 0 -46 30 -46 86 0 58 10 66 42 37z m83 -47 c14 -10 18 -26
18 -65 -1 -61 -4 -66 -32 -51 -18 9 -21 20 -21 70 0 63 4 69 35 46z m436 4
c15 -9 19 -22 19 -70 0 -61 -11 -75 -38 -48 -12 12 -18 128 -6 128 3 0 14 -5
25 -10z m-350 -50 c15 -9 19 -22 19 -70 0 -61 -11 -75 -38 -48 -12 12 -18 128
-6 128 3 0 14 -5 25 -10z m441 -7 c22 -20 27 -123 5 -123 -26 0 -37 25 -37 82
0 62 4 67 32 41z m106 -117 c2 -44 0 -56 -12 -56 -28 0 -46 30 -46 79 0 57 7
66 34 47 16 -10 22 -26 24 -70z m63 24 c15 -9 19 -22 19 -70 0 -61 -11 -75
-38 -48 -12 12 -18 128 -6 128 3 0 14 -5 25 -10z m-350 -50 c15 -9 19 -22 19
-70 0 -61 -11 -75 -38 -48 -12 12 -18 128 -6 128 3 0 14 -5 25 -10z m92 -54
c21 -17 25 -126 4 -126 -26 0 -37 25 -37 82 0 61 4 66 33 44z m105 -125 c3
-65 2 -67 -29 -51 -16 9 -19 22 -19 77 l0 65 23 -14 c18 -13 23 -26 25 -77z
m156 -27 c12 -5 16 -21 16 -71 l0 -65 -22 14 c-19 12 -24 26 -26 72 -3 56 1
62 32 50z m364 -30 c28 -19 62 -85 62 -119 0 -35 -44 -75 -82 -75 -54 0 -119
96 -104 155 7 26 48 54 81 55 11 0 31 -7 43 -16z m343 -205 c31 -34 51 -91 43
-124 -6 -24 -52 -55 -81 -55 -59 0 -128 127 -95 176 29 43 94 44 133 3z"/>
<path d="M1875 10470 l-150 -88 -3 -378 -2 -379 272 -156 c150 -86 577 -331
948 -546 371 -214 765 -442 875 -505 110 -64 267 -154 349 -202 82 -47 153
-86 158 -86 5 0 25 10 46 23 20 13 62 37 92 54 30 17 154 88 275 158 121 70
253 146 292 169 l73 41 0 472 0 472 -47 -28 c-330 -194 -737 -422 -747 -418
-7 3 -366 209 -797 458 -431 249 -937 541 -1124 649 l-340 196 -3 92 c-1 51
-6 92 -10 91 -4 0 -74 -40 -157 -89z m126 -440 c15 -9 19 -22 19 -70 0 -61
-11 -75 -38 -48 -12 12 -18 128 -6 128 3 0 14 -5 25 -10z m91 -57 c13 -12 18
-30 18 -70 0 -53 -4 -58 -34 -47 -12 5 -16 21 -16 70 0 35 3 64 7 64 3 0 15
-7 25 -17z m-177 -147 c14 -10 18 -25 16 -66 -2 -62 -5 -68 -29 -54 -12 8 -18
28 -20 73 -3 63 2 70 33 47z m438 0 c21 -17 25 -126 4 -126 -26 0 -37 25 -37
82 0 61 4 66 33 44z m-335 -126 l3 -63 -23 15 c-19 13 -23 26 -26 78 l-3 63
23 -15 c19 -13 23 -26 26 -78z m440 6 c3 -56 -1 -62 -32 -50 -12 5 -16 21 -16
71 l0 65 23 -14 c18 -12 23 -26 25 -72z m-350 -41 c4 -65 -2 -79 -28 -63 -17
11 -20 23 -20 77 l0 63 23 -14 c17 -12 23 -27 25 -63z m440 -5 c4 -62 -5 -76
-36 -54 -18 12 -22 25 -22 68 0 62 6 71 34 52 16 -10 22 -26 24 -66z m-358 1
c12 -23 13 -108 2 -115 -5 -3 -18 2 -30 10 -18 12 -22 25 -22 70 0 47 3 54 20
54 10 0 24 -9 30 -19z m429 10 c9 -6 13 -28 12 -66 0 -32 -2 -59 -4 -61 -2 -2
-13 3 -25 12 -18 12 -22 25 -22 70 0 55 8 64 39 45z m-171 -153 c12 -12 18
-128 6 -128 -3 0 -14 5 -25 10 -15 9 -19 22 -19 70 0 61 11 75 38 48z m86 -54
c17 -16 24 -124 8 -124 -4 0 -18 7 -30 16 -18 12 -22 25 -22 70 0 58 13 69 44
38z m430 10 c12 -5 16 -21 16 -70 0 -35 -3 -64 -7 -64 -3 0 -15 7 -25 17 -13
12 -18 30 -18 70 0 53 4 58 34 47z m-346 -56 c12 -12 17 -128 5 -128 -3 0 -15
7 -25 17 -13 12 -18 30 -18 70 0 54 12 67 38 41z m440 0 c12 -12 18 -128 6
-128 -3 0 -14 5 -25 10 -15 9 -19 22 -19 70 0 61 11 75 38 48z m-350 -50 c12
-12 18 -128 6 -128 -3 0 -14 5 -25 10 -15 9 -19 22 -19 70 0 61 11 75 38 48z
m433 2 c15 -9 19 -22 19 -70 0 -64 -1 -66 -31 -50 -15 9 -19 22 -19 70 0 64 1
66 31 50z m-350 -50 c15 -9 19 -22 19 -70 0 -63 -8 -72 -38 -42 -13 13 -16 30
-14 70 4 57 4 57 33 42z m527 -52 c14 -14 16 -128 3 -128 -25 0 -41 34 -41 86
0 55 12 68 38 42z m-350 -50 c14 -14 16 -128 3 -128 -25 0 -41 34 -41 86 0 55
12 68 38 42z m83 -48 c15 -9 19 -22 19 -70 0 -61 -11 -75 -38 -48 -12 12 -18
128 -6 128 3 0 14 -5 25 -10z m90 -50 c15 -9 19 -22 19 -70 0 -61 -11 -75 -38
-48 -12 12 -18 128 -6 128 3 0 14 -5 25 -10z m91 -57 c23 -21 27 -123 4 -123
-30 0 -46 30 -46 86 0 58 10 66 42 37z m79 -43 c15 -9 19 -22 19 -70 0 -64 -1
-66 -31 -50 -15 9 -19 22 -19 70 0 64 1 66 31 50z m370 -37 c34 -29 59 -78 59
-117 0 -26 -54 -76 -82 -76 -56 0 -130 131 -100 176 9 13 62 43 79 44 6 0 26
-12 44 -27z m328 -188 c39 -33 66 -102 53 -136 -6 -13 -26 -33 -46 -44 -35
-19 -36 -19 -63 1 -44 33 -73 82 -73 126 0 33 5 41 33 58 42 26 59 25 96 -5z"/>
<path d="M14365 10480 c-28 -11 -72 -60 -84 -93 -17 -45 -14 -105 7 -117 90
-53 404 -230 408 -230 2 0 4 12 4 28 1 43 33 104 78 144 l41 37 -127 72 c-70
39 -165 94 -212 120 -47 27 -87 49 -90 48 -3 0 -14 -4 -25 -9z"/>
<path d="M16155 9504 c-123 -64 -197 -265 -123 -334 89 -82 282 126 254 274
-13 68 -67 93 -131 60z"/>
<path d="M1878 9346 l-158 -91 0 -329 c0 -358 3 -384 54 -441 21 -23 241 -156
666 -401 660 -381 793 -458 1373 -793 192 -110 371 -207 399 -216 64 -19 151
-19 211 -1 25 7 188 96 361 196 l316 182 0 469 c0 469 0 470 -20 459 -11 -6
-166 -95 -343 -197 -177 -103 -345 -199 -373 -215 l-50 -27 -1135 654 -1134
655 -5 93 -5 93 -157 -90z m42 -401 c12 -14 16 -112 6 -123 -3 -3 -15 3 -26
13 -15 14 -20 31 -20 72 0 55 14 69 40 38z m88 -47 c12 -12 18 -128 6 -128 -3
0 -14 5 -25 10 -15 9 -19 22 -19 70 0 61 11 75 38 48z m83 -48 c15 -9 19 -22
19 -70 0 -61 -11 -75 -38 -48 -12 12 -18 128 -6 128 3 0 14 -5 25 -10z m93
-56 c19 -19 23 -124 4 -124 -29 0 -48 33 -48 87 0 57 13 68 44 37z m-266 -96
c12 -12 18 -128 6 -128 -3 0 -14 5 -25 10 -15 9 -19 22 -19 70 0 61 11 75 38
48z m433 2 c15 -9 19 -22 19 -70 0 -64 -1 -66 -31 -50 -15 9 -19 22 -19 70 0
64 1 66 31 50z m-257 -106 c22 -21 23 -124 2 -124 -27 0 -41 35 -38 89 4 54
11 61 36 35z m607 -94 c15 -9 19 -22 19 -70 0 -61 -11 -75 -38 -48 -12 12 -18
128 -6 128 3 0 14 -5 25 -10z m-350 -50 c15 -9 19 -22 19 -70 0 -61 -11 -75
-38 -48 -12 12 -18 128 -6 128 3 0 14 -5 25 -10z m441 -7 c22 -20 27 -123 5
-123 -26 0 -37 25 -37 82 0 62 4 67 32 41z m-350 -50 c13 -12 18 -30 18 -70 0
-53 -4 -58 -34 -47 -12 5 -16 21 -16 70 0 35 3 64 7 64 3 0 15 -7 25 -17z
m106 -117 c3 -58 -2 -65 -39 -46 -15 9 -19 22 -19 64 0 62 6 71 34 52 16 -10
22 -26 24 -70z m63 24 c15 -9 19 -22 19 -70 0 -61 -11 -75 -38 -48 -12 12 -18
128 -6 128 3 0 14 -5 25 -10z m442 -4 c21 -17 25 -126 4 -126 -26 0 -37 25
-37 82 0 61 4 66 33 44z m105 -120 c3 -56 -1 -62 -32 -50 -12 5 -16 21 -16 71
l0 65 23 -14 c18 -12 23 -26 25 -72z m90 -50 c3 -50 1 -56 -17 -56 -27 0 -41
29 -41 83 0 53 7 61 34 43 16 -10 22 -26 24 -70z m-350 -46 c4 -64 -8 -80 -37
-51 -16 16 -21 34 -21 69 0 58 6 67 34 48 16 -10 22 -26 24 -66z m415 66 c15
-11 17 -26 15 -75 l-3 -61 -22 15 c-20 14 -23 25 -23 76 0 62 4 67 33 45z
m-349 -52 c12 -5 16 -21 16 -71 l0 -65 -22 14 c-19 12 -24 26 -26 72 -3 56 1
62 32 50z m715 -230 c27 -20 60 -88 61 -126 0 -32 -45 -68 -85 -68 -52 0 -115
98 -101 155 7 26 48 54 81 55 11 0 31 -7 44 -16z m340 -206 c37 -38 57 -99 41
-127 -31 -59 -89 -65 -136 -16 -52 56 -59 140 -12 163 42 20 74 14 107 -20z"/>
</g>
</svg>
