<svg xmlns="http://www.w3.org/2000/svg" width="49.752" height="54.704" viewBox="0 0 49.752 54.704">
  <g id="neoAPIBoxFavicon" transform="translate(24.876 27.352)">
    <g id="Icon_feather-box" data-name="Icon feather-box" transform="translate(-24.876 -27.352)">
      <g id="Path_2284" data-name="Path 2284" transform="translate(0 0)">
        <path id="Path_84518" data-name="Path 84518" d="M24.88,54.505a8.179,8.179,0,0,1-4.1-1.1L4.11,43.885A8.216,8.216,0,0,1,0,36.789V17.72a8.217,8.217,0,0,1,4.095-7.091l16.7-9.541a8.2,8.2,0,0,1,8.179.009l16.671,9.525a8.222,8.222,0,0,1,4.109,7.1V36.789a8.217,8.217,0,0,1-4.1,7.089l-16.7,9.541A8.151,8.151,0,0,1,24.88,54.505ZM24.873,6.849a1.341,1.341,0,0,0-.668.179l-16.7,9.541a1.338,1.338,0,0,0-.658,1.153V36.787a1.334,1.334,0,0,0,.669,1.155L24.191,47.47a1.345,1.345,0,0,0,1.356.009l16.7-9.544a1.331,1.331,0,0,0,.657-1.15V17.72a1.336,1.336,0,0,0-.669-1.155L25.56,7.037A1.367,1.367,0,0,0,24.873,6.849ZM46.327,36.787h0Z" fill="#00ad53"/>
      </g>
      <g id="Path_2285" data-name="Path 2285" transform="translate(0 0)">
        <path id="Path_84519" data-name="Path 84519" d="M24.876,30.7a3.434,3.434,0,0,1-1.715-.46L2.354,18.206a3.425,3.425,0,0,1,3.429-5.931L24.876,23.321,43.969,12.275A3.425,3.425,0,0,1,47.4,18.206L26.591,30.242A3.434,3.434,0,0,1,24.876,30.7Z" fill="#00ad53"/>
      </g>
      <g id="Path_2286" data-name="Path 2286" transform="translate(0 0)">
        <path id="Path_84520" data-name="Path 84520" d="M24.876,54.7a3.426,3.426,0,0,1-3.425-3.425V27.255a3.425,3.425,0,0,1,6.85,0V51.279A3.426,3.426,0,0,1,24.876,54.7Z" fill="#00ad53"/>
      </g>
    </g>
  </g>
</svg>
